# xmcd
#
# Track frame offsets: 
#        150
#        20312
#        41607
#        64775
#        83115
#        101985
#        124505
#        147922
#        167880
#        182092
#
# Disc length: 2704 seconds
#
# Revision: 3
# Processed by: cddbd v1.5.2PL0 Copyright (c) Steve Scherf et al.
# Submitted via: ExactAudioCopy v0.95b4
#
DISCID=840a8e0a
DTITLE=Jeff Lorber - Flipside
DYEAR=2005
DGENRE=Jazz
TTITLE0=Ooh La La
TTITLE1=Everybody Knows That
TTITLE2=By My Side
TTITLE3=Flipside
TTITLE4=Santa Monica Triangle
TTITLE5=Sun Ra
TTITLE6=Angel In Paris
TTITLE7=Bombay Cafe
TTITLE8=Tune 88
TTITLE9=Enchanted Way
EXTD=YEAR: 2005
EXTT0=
EXTT1=
EXTT2=
EXTT3=
EXTT4=
EXTT5=
EXTT6=
EXTT7=
EXTT8=
EXTT9=
PLAYORDER=
